<?xml version="1.0" encoding="UTF-8" standalone="no"?>
<!-- Created with Inkscape (http://www.inkscape.org/) -->

<svg
   width="322mm"
   height="200mm"
   viewBox="0 0 322 200"
   version="1.1"
   id="svg1"
   inkscape:version="1.4.4 (dcaf3e7d9e, 2026-05-05)"
   sodipodi:docname="HoofdNietOptimaal.svg"
   xmlns:inkscape="http://www.inkscape.org/namespaces/inkscape"
   xmlns:sodipodi="http://sodipodi.sourceforge.net/DTD/sodipodi-0.dtd"
   xmlns:xlink="http://www.w3.org/1999/xlink"
   xmlns="http://www.w3.org/2000/svg"
   xmlns:svg="http://www.w3.org/2000/svg">
  <sodipodi:namedview
     id="namedview1"
     pagecolor="#000000"
     bordercolor="#000000"
     borderopacity="0.24705882"
     inkscape:showpageshadow="true"
     inkscape:pageopacity="0.0"
     inkscape:pagecheckerboard="true"
     inkscape:deskcolor="#d1d1d1"
     inkscape:document-units="mm"
     inkscape:zoom="0.71268238"
     inkscape:cx="406.21181"
     inkscape:cy="449.00787"
     inkscape:window-width="1920"
     inkscape:window-height="1011"
     inkscape:window-x="0"
     inkscape:window-y="0"
     inkscape:window-maximized="1"
     inkscape:current-layer="layer1"
     borderlayer="true"
     showborder="true" />
  <defs
     id="defs1">
    <inkscape:path-effect
       effect="skeletal"
       id="path-effect17"
       is_visible="true"
       lpeversion="1"
       pattern="M 0,4.9921382 C 0,2.2364779 2.2364779,0 4.9921382,0 c 2.7556603,0 4.9921383,2.2364779 4.9921383,4.9921382 0,2.7556603 -2.236478,4.9921383 -4.9921383,4.9921383 C 2.2364779,9.9842765 0,7.7477985 0,4.9921382 Z"
       copytype="single_stretched"
       prop_scale="-0.44185747"
       scale_y_rel="false"
       spacing="0"
       normal_offset="0"
       tang_offset="0"
       prop_units="false"
       vertical_pattern="false"
       hide_knot="false"
       fuse_tolerance="0" />
    <inkscape:path-effect
       effect="skeletal"
       id="path-effect16"
       is_visible="true"
       lpeversion="1"
       pattern="M 0,4.9921382 C 0,2.2364779 2.2364779,0 4.9921382,0 c 2.7556603,0 4.9921383,2.2364779 4.9921383,4.9921382 0,2.7556603 -2.236478,4.9921383 -4.9921383,4.9921383 C 2.2364779,9.9842765 0,7.7477985 0,4.9921382 Z"
       copytype="single_stretched"
       prop_scale="-0.44185747"
       scale_y_rel="false"
       spacing="0"
       normal_offset="0"
       tang_offset="0"
       prop_units="false"
       vertical_pattern="false"
       hide_knot="false"
       fuse_tolerance="0" />
    <inkscape:path-effect
       effect="skeletal"
       id="path-effect15"
       is_visible="true"
       lpeversion="1"
       pattern="M 0,4.9921382 C 0,2.2364779 2.2364779,0 4.9921382,0 c 2.7556603,0 4.9921383,2.2364779 4.9921383,4.9921382 0,2.7556603 -2.236478,4.9921383 -4.9921383,4.9921383 C 2.2364779,9.9842765 0,7.7477985 0,4.9921382 Z"
       copytype="single_stretched"
       prop_scale="-0.44185747"
       scale_y_rel="false"
       spacing="0"
       normal_offset="0"
       tang_offset="0"
       prop_units="false"
       vertical_pattern="false"
       hide_knot="false"
       fuse_tolerance="0" />
    <inkscape:path-effect
       effect="skeletal"
       id="path-effect14"
       is_visible="true"
       lpeversion="1"
       pattern="M 0,4.9921382 C 0,2.2364779 2.2364779,0 4.9921382,0 c 2.7556603,0 4.9921383,2.2364779 4.9921383,4.9921382 0,2.7556603 -2.236478,4.9921383 -4.9921383,4.9921383 C 2.2364779,9.9842765 0,7.7477985 0,4.9921382 Z"
       copytype="single_stretched"
       prop_scale="-0.44185747"
       scale_y_rel="false"
       spacing="0"
       normal_offset="0"
       tang_offset="0"
       prop_units="false"
       vertical_pattern="false"
       hide_knot="false"
       fuse_tolerance="0" />
    <inkscape:path-effect
       effect="skeletal"
       id="path-effect13"
       is_visible="true"
       lpeversion="1"
       pattern="M 0,4.9921382 C 0,2.2364779 2.2364779,0 4.9921382,0 c 2.7556603,0 4.9921383,2.2364779 4.9921383,4.9921382 0,2.7556603 -2.236478,4.9921383 -4.9921383,4.9921383 C 2.2364779,9.9842765 0,7.7477985 0,4.9921382 Z"
       copytype="single_stretched"
       prop_scale="-0.44185747"
       scale_y_rel="false"
       spacing="0"
       normal_offset="0"
       tang_offset="0"
       prop_units="false"
       vertical_pattern="false"
       hide_knot="false"
       fuse_tolerance="0" />
    <inkscape:path-effect
       effect="skeletal"
       id="path-effect12"
       is_visible="true"
       lpeversion="1"
       pattern="M 0,4.9921382 C 0,2.2364779 2.2364779,0 4.9921382,0 c 2.7556603,0 4.9921383,2.2364779 4.9921383,4.9921382 0,2.7556603 -2.236478,4.9921383 -4.9921383,4.9921383 C 2.2364779,9.9842765 0,7.7477985 0,4.9921382 Z"
       copytype="single_stretched"
       prop_scale="-0.44185747"
       scale_y_rel="false"
       spacing="0"
       normal_offset="0"
       tang_offset="0"
       prop_units="false"
       vertical_pattern="false"
       hide_knot="false"
       fuse_tolerance="0" />
    <inkscape:path-effect
       effect="skeletal"
       id="path-effect11"
       is_visible="true"
       lpeversion="1"
       pattern="M 0,4.9921382 C 0,2.2364779 2.2364779,0 4.9921382,0 c 2.7556603,0 4.9921383,2.2364779 4.9921383,4.9921382 0,2.7556603 -2.236478,4.9921383 -4.9921383,4.9921383 C 2.2364779,9.9842765 0,7.7477985 0,4.9921382 Z"
       copytype="single_stretched"
       prop_scale="-0.44185747"
       scale_y_rel="false"
       spacing="0"
       normal_offset="0"
       tang_offset="0"
       prop_units="false"
       vertical_pattern="false"
       hide_knot="false"
       fuse_tolerance="0" />
    <inkscape:path-effect
       effect="skeletal"
       id="path-effect10"
       is_visible="true"
       lpeversion="1"
       pattern="M 0,4.9921382 C 0,2.2364779 2.2364779,0 4.9921382,0 c 2.7556603,0 4.9921383,2.2364779 4.9921383,4.9921382 0,2.7556603 -2.236478,4.9921383 -4.9921383,4.9921383 C 2.2364779,9.9842765 0,7.7477985 0,4.9921382 Z"
       copytype="single_stretched"
       prop_scale="-0.44185747"
       scale_y_rel="false"
       spacing="0"
       normal_offset="0"
       tang_offset="0"
       prop_units="false"
       vertical_pattern="false"
       hide_knot="false"
       fuse_tolerance="0" />
    <inkscape:path-effect
       effect="skeletal"
       id="path-effect9"
       is_visible="true"
       lpeversion="1"
       pattern="M 0,4.9921382 C 0,2.2364779 2.2364779,0 4.9921382,0 c 2.7556603,0 4.9921383,2.2364779 4.9921383,4.9921382 0,2.7556603 -2.236478,4.9921383 -4.9921383,4.9921383 C 2.2364779,9.9842765 0,7.7477985 0,4.9921382 Z"
       copytype="single_stretched"
       prop_scale="-0.44185747"
       scale_y_rel="false"
       spacing="0"
       normal_offset="0"
       tang_offset="0"
       prop_units="false"
       vertical_pattern="false"
       hide_knot="false"
       fuse_tolerance="0" />
    <inkscape:path-effect
       effect="skeletal"
       id="path-effect8"
       is_visible="true"
       lpeversion="1"
       pattern="M 0,4.9921382 C 0,2.2364779 2.2364779,0 4.9921382,0 c 2.7556603,0 4.9921383,2.2364779 4.9921383,4.9921382 0,2.7556603 -2.236478,4.9921383 -4.9921383,4.9921383 C 2.2364779,9.9842765 0,7.7477985 0,4.9921382 Z"
       copytype="single_stretched"
       prop_scale="-0.44185747"
       scale_y_rel="false"
       spacing="0"
       normal_offset="0"
       tang_offset="0"
       prop_units="false"
       vertical_pattern="false"
       hide_knot="false"
       fuse_tolerance="0" />
    <inkscape:path-effect
       effect="skeletal"
       id="path-effect7"
       is_visible="true"
       lpeversion="1"
       pattern="M 0,4.9921382 C 0,2.2364779 2.2364779,0 4.9921382,0 c 2.7556603,0 4.9921383,2.2364779 4.9921383,4.9921382 0,2.7556603 -2.236478,4.9921383 -4.9921383,4.9921383 C 2.2364779,9.9842765 0,7.7477985 0,4.9921382 Z"
       copytype="single_stretched"
       prop_scale="-0.44185747"
       scale_y_rel="false"
       spacing="0"
       normal_offset="0"
       tang_offset="0"
       prop_units="false"
       vertical_pattern="false"
       hide_knot="false"
       fuse_tolerance="0" />
    <inkscape:path-effect
       effect="skeletal"
       id="path-effect6"
       is_visible="true"
       lpeversion="1"
       pattern="M 0,4.9921382 C 0,2.2364779 2.2364779,0 4.9921382,0 c 2.7556603,0 4.9921383,2.2364779 4.9921383,4.9921382 0,2.7556603 -2.236478,4.9921383 -4.9921383,4.9921383 C 2.2364779,9.9842765 0,7.7477985 0,4.9921382 Z"
       copytype="single_stretched"
       prop_scale="-0.44185747"
       scale_y_rel="false"
       spacing="0"
       normal_offset="0"
       tang_offset="0"
       prop_units="false"
       vertical_pattern="false"
       hide_knot="false"
       fuse_tolerance="0" />
    <inkscape:path-effect
       effect="skeletal"
       id="path-effect5"
       is_visible="true"
       lpeversion="1"
       pattern="M 0,4.9921382 C 0,2.2364779 2.2364779,0 4.9921382,0 c 2.7556603,0 4.9921383,2.2364779 4.9921383,4.9921382 0,2.7556603 -2.236478,4.9921383 -4.9921383,4.9921383 C 2.2364779,9.9842765 0,7.7477985 0,4.9921382 Z"
       copytype="single_stretched"
       prop_scale="-0.44185747"
       scale_y_rel="false"
       spacing="0"
       normal_offset="0"
       tang_offset="0"
       prop_units="false"
       vertical_pattern="false"
       hide_knot="false"
       fuse_tolerance="0" />
    <inkscape:path-effect
       effect="skeletal"
       id="path-effect4"
       is_visible="true"
       lpeversion="1"
       pattern="M 0,4.9921382 C 0,2.2364779 2.2364779,0 4.9921382,0 c 2.7556603,0 4.9921383,2.2364779 4.9921383,4.9921382 0,2.7556603 -2.236478,4.9921383 -4.9921383,4.9921383 C 2.2364779,9.9842765 0,7.7477985 0,4.9921382 Z"
       copytype="single_stretched"
       prop_scale="-0.44185747"
       scale_y_rel="false"
       spacing="0"
       normal_offset="0"
       tang_offset="0"
       prop_units="false"
       vertical_pattern="false"
       hide_knot="false"
       fuse_tolerance="0" />
    <inkscape:path-effect
       effect="skeletal"
       id="path-effect3"
       is_visible="true"
       lpeversion="1"
       pattern="M 0,4.9921382 C 0,2.2364779 2.2364779,0 4.9921382,0 c 2.7556603,0 4.9921383,2.2364779 4.9921383,4.9921382 0,2.7556603 -2.236478,4.9921383 -4.9921383,4.9921383 C 2.2364779,9.9842765 0,7.7477985 0,4.9921382 Z"
       copytype="single_stretched"
       prop_scale="1"
       scale_y_rel="false"
       spacing="0"
       normal_offset="0"
       tang_offset="0"
       prop_units="false"
       vertical_pattern="false"
       hide_knot="false"
       fuse_tolerance="0" />
    <inkscape:path-effect
       effect="skeletal"
       id="path-effect2"
       is_visible="true"
       lpeversion="1"
       pattern="M 0,4.9921382 C 0,2.2364779 2.2364779,0 4.9921382,0 c 2.7556603,0 4.9921383,2.2364779 4.9921383,4.9921382 0,2.7556603 -2.236478,4.9921383 -4.9921383,4.9921383 C 2.2364779,9.9842765 0,7.7477985 0,4.9921382 Z"
       copytype="single_stretched"
       prop_scale="1"
       scale_y_rel="false"
       spacing="0"
       normal_offset="0"
       tang_offset="0"
       prop_units="false"
       vertical_pattern="false"
       hide_knot="false"
       fuse_tolerance="0" />
  </defs>
  <g
     inkscape:label="Laag 1"
     inkscape:groupmode="layer"
     id="layer1">
    <ellipse
       style="fill:none;stroke:#ffffff;stroke-width:6.46756;stroke-dasharray:none"
       id="path1"
       cx="245.91376"
       cy="112.0068"
       rx="72.070503"
       ry="71.994446" />
    <path
       style="fill:#ffffff;stroke:none;stroke-width:3;stroke-dasharray:none"
       d="m 113.6025,156.29625 c 0.3786,-0.0303 0.63677,-0.61248 1.11819,-1.30856 0.53821,-0.77819 1.2319,-1.52965 2.43565,-2.47377 1.31932,-0.95765 3.03399,-1.77206 5.07181,-2.16813 0.29613,-0.0498 0.59764,-0.0905 0.90103,-0.12018 1.61423,-0.15781 3.03953,0.0159 4.16358,0.5627 1.52895,0.58939 2.69461,2.09282 3.45259,3.08156 0.80963,1.05611 1.33785,1.78096 1.7909,1.68388 0.39828,-0.0853 0.74966,-1.00834 0.47165,-2.61072 -0.2753,-1.5867 -1.20065,-3.89083 -3.70491,-5.63883 -1.86348,-1.17738 -4.19227,-1.74556 -6.62506,-1.48933 -0.45732,0.0482 -0.90435,0.12424 -1.33794,0.22499 -2.89192,0.62084 -5.17525,2.13904 -6.67049,3.85719 -1.46395,1.58143 -1.95087,3.38603 -1.92651,4.61158 0.0249,1.25342 0.5148,1.81519 0.85951,1.78762 z"
       id="path3"
       inkscape:path-effect="#path-effect4"
       inkscape:original-d="m 113.6025,156.29625 c -0.59019,-7.37844 16.09646,-13.98319 18.93375,-0.7425"
       transform="matrix(2.1569925,0,0,2.154716,-43.169095,-232.76664)" />
    <use
       x="0"
       y="0"
       xlink:href="#path3"
       id="use4"
       transform="translate(55.25406,-0.799939)"
       style="fill:#ffffff" />
    <path
       style="fill:#ffffff;stroke:none;stroke-width:3;stroke-dasharray:none"
       d="m 112.48875,168.17625 c -0.41375,0.10173 -0.50765,1.92427 0.41102,4.92502 0.87987,2.87399 2.97549,7.30894 7.46745,10.57034 3.88556,2.73396 9.26226,4.20159 14.92741,3.19743 0.11347,-0.0203 0.22686,-0.0414 0.34016,-0.0635 5.69961,-1.11004 10.27694,-4.28797 13.2881,-7.8862 3.49768,-4.2031 4.79759,-8.67961 5.1983,-11.77569 0.40071,-3.09608 0.001,-4.87907 -0.42369,-4.90741 -0.42519,-0.0284 -0.84223,1.671 -1.83862,4.36117 -0.9706,2.62058 -2.66504,6.45563 -5.8527,9.7047 -2.73809,2.8101 -6.63841,5.30659 -11.20504,6.17295 -0.0912,0.0173 -0.18244,0.0339 -0.27366,0.0498 -4.47759,0.78698 -8.81537,-0.17597 -11.99748,-2.12084 -3.75652,-2.20171 -6.11807,-5.85471 -7.48045,-8.22353 -1.43611,-2.49699 -2.14705,-4.10596 -2.5608,-4.00423 z"
       id="path4"
       inkscape:path-effect="#path-effect5"
       inkscape:original-d="m 112.48875,168.17625 c 6.53963,26.59794 39.51693,19.43725 41.20875,-5.94"
       transform="matrix(2.1569925,0,0,2.154716,-39.165175,-235.16646)" />
    <path
       style="fill:#ff8400;fill-opacity:1;stroke:none;stroke-width:3;stroke-dasharray:none"
       d="m 187.11,147.015 c 0.15326,-0.39651 -2.99968,-2.23281 -9.0235,-4.14471 -5.78137,-1.83495 -15.22595,-3.89783 -25.82247,-2.22691 -9.21461,1.49885 -18.80419,5.97527 -27.01833,13.62016 -0.1846,0.17198 -0.36836,0.34515 -0.55131,0.5195 -8.31978,7.92904 -14.0366,17.45392 -18.01199,25.81103 -8.981,18.83513 -10.97004,33.02923 -10.157402,33.24593 0.812639,0.21671 4.247692,-13.55255 13.637132,-31.50844 4.16246,-7.94167 9.7956,-16.98533 17.5699,-24.35239 0.17156,-0.16257 0.3438,-0.32399 0.51671,-0.48426 7.61278,-7.06372 16.3143,-11.36096 24.70187,-12.99876 9.62628,-1.93145 18.81733,-0.52911 24.55075,0.62778 6.01217,1.21314 9.45538,2.28758 9.60864,1.89107 z"
       id="path12"
       inkscape:path-effect="#path-effect13"
       inkscape:original-d="M 187.11,147.015 C 134.8525,126.81577 108.59509,168.57716 96.524999,213.84"
       transform="matrix(2.1569925,0,0,2.154716,-181.70463,-277.56318)" />
    <path
       style="fill:#ff8400;fill-opacity:1;stroke:none;stroke-width:3;stroke-dasharray:none"
       d="m 196.02,147.015 c 0.39246,-0.45088 -5.54933,-8.09387 -19.4996,-13.82429 0,0 0,0 0,0 -5.5346,-2.26856 -12.47021,-3.94989 -20.18995,-3.70711 -6.23382,0.20505 -12.77416,1.64777 -19.21033,4.44233 -6.07196,2.63684 -11.85782,6.32899 -17.25017,10.89645 -0.27608,0.2339 -0.55102,0.46979 -0.82482,0.70765 -11.73846,10.19797 -19.775453,22.62437 -25.073948,33.85028 -5.548789,11.71486 -8.042654,21.90161 -9.071646,29.43322 -1.0097,7.39041 -0.663265,11.68746 -0.254537,11.70897 0.408728,0.0215 0.831924,-4.20465 2.458339,-11.30815 1.668323,-7.28653 4.576105,-16.90545 10.30396,-28.14619 5.473692,-10.70467 13.376892,-22.54718 24.527762,-32.20702 0.26059,-0.22575 0.52217,-0.44962 0.78473,-0.6716 5.11455,-4.32519 10.50741,-7.83436 16.12488,-10.35471 5.94012,-2.66565 11.93913,-4.13628 17.66351,-4.48027 7.07234,-0.43629 13.57425,0.85513 18.92199,2.71168 0,0 1e-5,0 1e-5,0 13.45859,4.66132 20.19736,11.39964 20.58982,10.94876 z"
       id="path13"
       inkscape:path-effect="#path-effect14"
       inkscape:original-d="M 196.02,147.015 C 142.47606,100.40906 87.42192,167.761 84.644999,220.5225"
       transform="matrix(2.1569925,0,0,2.154716,-181.70463,-277.56318)" />
    <path
       style="fill:#ff8400;fill-opacity:1;stroke:none;stroke-width:0.92770663;stroke-dasharray:none"
       d="m 205.30125,145.90125 c 0.28789,-0.44691 -4.18672,-5.03605 -13.9953,-6.30918 -4.48278,-0.57174 -9.72043,-0.23654 -15.41269,1.49105 -5.04174,1.52665 -10.09891,3.96395 -15.1539,7.30013 -4.87215,3.21051 -9.53861,7.0887 -14.00818,11.59167 -0.52698,0.53049 -1.05065,1.06841 -1.57078,1.61378 -9.01521,9.45255 -15.47874,19.56299 -19.92815,28.904 0,0 0,0 0,0 -2.87101,6.02053 -4.73137,11.42538 -5.88873,16.21706 -2.25145,9.28954 -1.38197,14.9265 -0.91477,14.9265 0.5253,0 0.74828,-5.54651 3.58281,-14.16797 1.49533,-4.53514 3.56802,-9.56344 6.58526,-15.2891 0,-1e-5 0,-1e-5 0,-1e-5 4.67633,-8.86483 11.08207,-18.45046 19.75611,-27.54574 0.50048,-0.52479 1.00376,-1.04292 1.50967,-1.55442 4.28819,-4.33186 8.67543,-8.07294 13.22627,-11.20532 4.72903,-3.24976 9.34023,-5.67383 13.94447,-7.27904 5.18522,-1.8042 9.88902,-2.41639 14.02143,-2.21289 8.98302,0.41884 13.95859,3.96639 14.24648,3.51948 z"
       id="path14"
       inkscape:path-effect="#path-effect15"
       inkscape:original-d="m 205.30125,145.90125 c -36.18163,-23.30768 -86.8725,39.73127 -86.8725,75.735"
       transform="matrix(2.1569925,0,0,2.154716,-181.70463,-277.56318)" />
    <path
       style="fill:#ff8400;fill-opacity:1;stroke:none;stroke-width:3;stroke-dasharray:none"
       d="m 103.95,215.69625 c 0.27434,0.17146 3.25031,-4.12879 9.14412,-11.45278 3.36618,-4.18172 7.52215,-9.17685 12.73119,-15.0166 7.95504,-8.91552 18.99381,-20.64042 32.05336,-31.275 5.06172,-4.11976 10.65441,-8.27589 16.73008,-11.75926 4.73133,-2.69758 9.87159,-5.16032 15.28014,-6.20739 2.18096,-0.42433 4.40383,-0.62698 6.56478,-0.43139 1.96651,0.17567 3.91339,0.67016 5.66315,1.5348 1.81028,0.8804 3.46027,2.18185 4.8743,3.73992 2.154,2.00992 3.97589,4.40254 5.58583,6.97592 2.22698,-0.73166 3.91408,-1.86808 5.21394,-2.96778 0,0 1e-5,-2e-5 1e-5,-2e-5 1.08135,-1.58208 1.89411,-3.31115 2.46167,-5.09742 0.57942,-1.7679 0.9316,-3.70196 0.8675,-5.7216 0,0 0,-1e-5 0,-1e-5 -0.0151,-1.77163 -0.55397,-3.71579 -1.87303,-5.40851 -0.18781,-0.19935 -0.37979,-0.38539 -0.57492,-0.55896 -1.51659,-1.34904 -3.21706,-1.93944 -4.61511,-2.18384 -2.25555,-0.55159 -4.49421,-0.77905 -6.63234,-0.90568 -4.01643,-0.24592 -8.02759,-0.1043 -11.77592,-0.0959 -9.2967,0.0169 -18.33322,0.98364 -26.91029,2.60123 -9.33562,1.74623 -18.03642,4.21725 -25.94343,8.22289 -1.06969,0.56696 -1.88918,1.26991 -2.53576,1.93128 -0.97717,0.9626 -1.83072,1.97997 -2.60873,2.98041 -2.22745,2.85712 -4.14192,5.87091 -5.87752,8.74718 -5.18035,8.57402 -9.51584,17.3122 -13.00477,24.74621 -4.9054,10.4468 -8.34804,18.89439 -10.91675,26.15126 -1.51812,4.28711 -2.50263,7.52325 -3.20398,10.43658 -0.39029,1.6203 -0.62668,2.89108 -0.76397,4.00002 -0.24243,1.93963 -0.084,2.95449 0.0665,2.95449 0.14099,0 0.25514,-0.97107 0.74347,-2.79688 0.29207,-1.08469 0.63502,-2.22097 1.16932,-3.80787 0.96908,-2.8769 2.08618,-5.82687 3.84472,-10.07426 2.95449,-7.13303 6.6055,-15.21423 11.80222,-25.52959 3.66528,-7.27202 8.16671,-15.85693 13.38708,-24.15416 1.76076,-2.79512 3.64356,-5.66245 5.76229,-8.28807 0.74339,-0.91882 1.4989,-1.80036 2.30878,-2.56834 0.59039,-0.53653 1.09787,-1.00211 1.58459,-1.2134 7.48783,-3.69175 15.82743,-5.93374 24.95052,-7.58931 8.36373,-1.50448 17.14612,-2.39345 26.14576,-2.37657 3.85081,0.008 7.77502,-0.12561 11.4984,0.11725 2.03066,0.13664 4.00913,0.32665 5.84688,0.7916 1.21137,0.40359 2.28496,0.63517 2.72579,1.09611 0.0568,0.0594 0.10321,0.12268 0.13814,0.19061 0.55598,0.5574 0.75868,1.61818 0.85565,2.75411 0,0 0,1e-5 0,1e-5 0.066,1.35517 -0.21496,2.78702 -0.65577,4.21098 -0.45991,1.42825 -1.0818,2.77618 -1.8918,3.95506 0,0 0,1e-5 0,1e-5 -0.22724,1.1302 -0.35639,2.12525 -0.54799,2.55449 -0.74749,-2.51974 -1.84657,-4.92443 -3.40453,-7.00418 -1.75035,-1.9284 -3.84775,-3.54792 -6.20812,-4.69676 -2.29384,-1.10278 -4.75126,-1.72085 -7.19598,-1.91354 -2.66216,-0.20715 -5.27926,0.0379 -7.75572,0.55353 -6.08306,1.27228 -11.60319,3.94705 -16.48351,6.84185 -6.30651,3.721 -12.00656,8.07368 -17.0947,12.36189 -13.1632,11.08839 -23.96828,23.13735 -31.68841,32.42031 -5.02818,6.04405 -9.01795,11.29367 -12.1401,15.67611 -5.48221,7.69352 -7.97132,12.37755 -7.69698,12.54901 z"
       id="path15"
       inkscape:path-effect="#path-effect16"
       inkscape:original-d="m 103.95,215.69625 c 15.98009,-25.56814 88.24295,-110.50493 109.1475,-65.34 3.99485,-1.91589 8.00737,-12.07216 4.455,-16.335 -3.06311,-3.67573 -17.01322,-2.97 -21.90375,-2.97 -15.88725,0 -37.52914,3.17207 -51.975,10.395 -9.79436,4.89718 -39.72375,67.87822 -39.72375,80.19"
       transform="matrix(2.1569925,0,0,2.154716,-181.70463,-277.56318)" />
  </g>
</svg>
